<mxfile host="app.diagrams.net" modified="2023-04-22T14:39:26.442Z" agent="Mozilla/5.0 (Macintosh; Intel Mac OS X 10.15; rv:109.0) Gecko/20100101 Firefox/112.0" etag="LMOLRuzVRsAXjNhhomMR" version="21.2.1" type="github">
  <diagram name="Page-1" id="KkK54AJAZAbkAiwjYjyY">
    <mxGraphModel dx="2474" dy="1044" grid="0" gridSize="10" guides="1" tooltips="1" connect="1" arrows="1" fold="1" page="0" pageScale="1" pageWidth="850" pageHeight="1100" background="#CCFFCC" math="0" shadow="0">
      <root>
        <mxCell id="0" />
        <mxCell id="1" parent="0" />
        <mxCell id="SoYxP0OV9XlbnNUCGbs9-6" value="PRODUCTION AWS ACCOUNT FOR EXAMPLE.COM ORGANIZATION" style="swimlane;whiteSpace=wrap;html=1;hachureGap=4;strokeColor=#82b366;fontFamily=Architects Daughter;fontSource=https%3A%2F%2Ffonts.googleapis.com%2Fcss%3Ffamily%3DArchitects%2BDaughter;fontSize=20;fillColor=#d5e8d4;strokeWidth=4;" vertex="1" parent="1">
          <mxGeometry x="-50" y="57" width="1282" height="689" as="geometry" />
        </mxCell>
        <mxCell id="SoYxP0OV9XlbnNUCGbs9-26" style="edgeStyle=orthogonalEdgeStyle;rounded=0;sketch=1;hachureGap=4;jiggle=2;curveFitting=1;orthogonalLoop=1;jettySize=auto;html=1;entryX=0.5;entryY=0;entryDx=0;entryDy=0;entryPerimeter=0;strokeColor=#23445D;fontFamily=Architects Daughter;fontSource=https%3A%2F%2Ffonts.googleapis.com%2Fcss%3Ffamily%3DArchitects%2BDaughter;fontSize=16;" edge="1" parent="SoYxP0OV9XlbnNUCGbs9-6" source="SoYxP0OV9XlbnNUCGbs9-3" target="SoYxP0OV9XlbnNUCGbs9-25">
          <mxGeometry relative="1" as="geometry">
            <Array as="points">
              <mxPoint x="927" y="86" />
            </Array>
          </mxGeometry>
        </mxCell>
        <mxCell id="SoYxP0OV9XlbnNUCGbs9-3" value="" style="outlineConnect=0;dashed=0;verticalLabelPosition=bottom;verticalAlign=top;align=center;html=1;shape=mxgraph.aws3.cloudwatch;fillColor=#759C3E;gradientColor=none;hachureGap=4;strokeColor=#FFFFFF;fontFamily=Architects Daughter;fontSource=https%3A%2F%2Ffonts.googleapis.com%2Fcss%3Ffamily%3DArchitects%2BDaughter;fontSize=20;fontColor=#FFFFFF;" vertex="1" parent="SoYxP0OV9XlbnNUCGbs9-6">
          <mxGeometry x="81" y="56" width="82.5" height="93" as="geometry" />
        </mxCell>
        <mxCell id="SoYxP0OV9XlbnNUCGbs9-4" value="&lt;span style=&quot;background-color: rgb(0, 0, 0);&quot;&gt;Cloud Watch&lt;/span&gt;" style="text;html=1;strokeColor=none;fillColor=none;align=center;verticalAlign=middle;whiteSpace=wrap;rounded=0;fontSize=20;fontFamily=Architects Daughter;fontColor=#FFFFFF;" vertex="1" parent="SoYxP0OV9XlbnNUCGbs9-6">
          <mxGeometry x="62" y="161" width="128" height="30" as="geometry" />
        </mxCell>
        <mxCell id="SoYxP0OV9XlbnNUCGbs9-23" style="edgeStyle=orthogonalEdgeStyle;rounded=0;sketch=1;hachureGap=4;jiggle=2;curveFitting=1;orthogonalLoop=1;jettySize=auto;html=1;strokeColor=#23445D;fontFamily=Architects Daughter;fontSource=https%3A%2F%2Ffonts.googleapis.com%2Fcss%3Ffamily%3DArchitects%2BDaughter;fontSize=16;" edge="1" parent="SoYxP0OV9XlbnNUCGbs9-6" source="SoYxP0OV9XlbnNUCGbs9-16" target="SoYxP0OV9XlbnNUCGbs9-3">
          <mxGeometry relative="1" as="geometry">
            <Array as="points">
              <mxPoint x="370" y="125" />
            </Array>
          </mxGeometry>
        </mxCell>
        <mxCell id="SoYxP0OV9XlbnNUCGbs9-16" value="" style="verticalLabelPosition=bottom;html=1;verticalAlign=top;strokeWidth=1;align=center;outlineConnect=0;dashed=0;outlineConnect=0;shape=mxgraph.aws3d.application_server;fillColor=#ECECEC;strokeColor=#5E5E5E;aspect=fixed;hachureGap=4;fontFamily=Architects Daughter;fontSource=https%3A%2F%2Ffonts.googleapis.com%2Fcss%3Ffamily%3DArchitects%2BDaughter;fontSize=20;fontColor=#FFFFFF;" vertex="1" parent="SoYxP0OV9XlbnNUCGbs9-6">
          <mxGeometry x="308" y="259" width="54.56" height="55" as="geometry" />
        </mxCell>
        <mxCell id="SoYxP0OV9XlbnNUCGbs9-24" value="" style="shape=image;html=1;verticalAlign=top;verticalLabelPosition=bottom;labelBackgroundColor=#ffffff;imageAspect=0;aspect=fixed;image=https://cdn4.iconfinder.com/data/icons/48-bubbles/48/43.Bell-128.png;sketch=1;hachureGap=4;jiggle=2;curveFitting=1;strokeColor=#FFFFFF;fontFamily=Architects Daughter;fontSource=https%3A%2F%2Ffonts.googleapis.com%2Fcss%3Ffamily%3DArchitects%2BDaughter;fontSize=20;fontColor=#FFFFFF;fillColor=#182E3E;" vertex="1" parent="SoYxP0OV9XlbnNUCGbs9-6">
          <mxGeometry x="369" y="131" width="60" height="60" as="geometry" />
        </mxCell>
        <mxCell id="SoYxP0OV9XlbnNUCGbs9-25" value="" style="outlineConnect=0;dashed=0;verticalLabelPosition=bottom;verticalAlign=top;align=center;html=1;shape=mxgraph.aws3.lambda;fillColor=#F58534;gradientColor=none;hachureGap=4;strokeColor=#FFFFFF;fontFamily=Architects Daughter;fontSource=https%3A%2F%2Ffonts.googleapis.com%2Fcss%3Ffamily%3DArchitects%2BDaughter;fontSize=20;fontColor=#FFFFFF;" vertex="1" parent="SoYxP0OV9XlbnNUCGbs9-6">
          <mxGeometry x="889" y="273" width="76.5" height="93" as="geometry" />
        </mxCell>
        <mxCell id="SoYxP0OV9XlbnNUCGbs9-27" value="&lt;font style=&quot;font-size: 24px;&quot; color=&quot;#000000&quot;&gt;Trigger1 spec.&lt;/font&gt;" style="html=1;shape=mxgraph.infographic.ribbonSimple;notch1=20;notch2=0;align=center;verticalAlign=middle;fontSize=14;fontStyle=0;flipH=1;fillColor=#FFFFFF;whiteSpace=wrap;sketch=1;hachureGap=4;jiggle=2;curveFitting=1;strokeColor=#FFFFFF;fontFamily=Architects Daughter;fontSource=https%3A%2F%2Ffonts.googleapis.com%2Fcss%3Ffamily%3DArchitects%2BDaughter;fontColor=#FFFFFF;" vertex="1" parent="SoYxP0OV9XlbnNUCGbs9-6">
          <mxGeometry x="455" y="64" width="185" height="40" as="geometry" />
        </mxCell>
        <mxCell id="SoYxP0OV9XlbnNUCGbs9-28" value="" style="outlineConnect=0;dashed=0;verticalLabelPosition=bottom;verticalAlign=top;align=center;html=1;shape=mxgraph.aws3.kms;fillColor=#759C3E;gradientColor=none;hachureGap=4;strokeColor=#FFFFFF;fontFamily=Architects Daughter;fontSource=https%3A%2F%2Ffonts.googleapis.com%2Fcss%3Ffamily%3DArchitects%2BDaughter;fontSize=20;fontColor=#FFFFFF;" vertex="1" parent="SoYxP0OV9XlbnNUCGbs9-6">
          <mxGeometry x="369" y="286" width="44.5" height="57" as="geometry" />
        </mxCell>
        <mxCell id="SoYxP0OV9XlbnNUCGbs9-29" value="" style="outlineConnect=0;dashed=0;verticalLabelPosition=bottom;verticalAlign=top;align=center;html=1;shape=mxgraph.aws3.iam;fillColor=#759C3E;gradientColor=none;hachureGap=4;strokeColor=#FFFFFF;fontFamily=Architects Daughter;fontSource=https%3A%2F%2Ffonts.googleapis.com%2Fcss%3Ffamily%3DArchitects%2BDaughter;fontSize=20;fontColor=#FFFFFF;" vertex="1" parent="SoYxP0OV9XlbnNUCGbs9-6">
          <mxGeometry x="317" y="324" width="22" height="52" as="geometry" />
        </mxCell>
        <mxCell id="SoYxP0OV9XlbnNUCGbs9-33" style="edgeStyle=orthogonalEdgeStyle;rounded=0;sketch=1;hachureGap=4;jiggle=2;curveFitting=1;orthogonalLoop=1;jettySize=auto;html=1;strokeColor=#23445D;fontFamily=Architects Daughter;fontSource=https%3A%2F%2Ffonts.googleapis.com%2Fcss%3Ffamily%3DArchitects%2BDaughter;fontSize=16;" edge="1" parent="SoYxP0OV9XlbnNUCGbs9-6" source="SoYxP0OV9XlbnNUCGbs9-32">
          <mxGeometry relative="1" as="geometry">
            <mxPoint x="706.5" y="476" as="targetPoint" />
          </mxGeometry>
        </mxCell>
        <mxCell id="SoYxP0OV9XlbnNUCGbs9-32" value="&lt;div&gt;Validate &lt;br&gt;&lt;/div&gt;&lt;div&gt;against&lt;/div&gt;&lt;div&gt;compliance&lt;/div&gt;&lt;div&gt;&lt;br&gt;&lt;/div&gt;" style="strokeWidth=2;html=1;shape=mxgraph.flowchart.decision;whiteSpace=wrap;hachureGap=4;strokeColor=#FFFFFF;fontFamily=Architects Daughter;fontSource=https%3A%2F%2Ffonts.googleapis.com%2Fcss%3Ffamily%3DArchitects%2BDaughter;fontSize=20;fontColor=#FFFFFF;fillColor=#182E3E;" vertex="1" parent="SoYxP0OV9XlbnNUCGbs9-6">
          <mxGeometry x="625" y="239.63" width="163" height="159.75" as="geometry" />
        </mxCell>
        <mxCell id="SoYxP0OV9XlbnNUCGbs9-31" style="edgeStyle=orthogonalEdgeStyle;rounded=0;sketch=1;hachureGap=4;jiggle=2;curveFitting=1;orthogonalLoop=1;jettySize=auto;html=1;strokeColor=#23445D;fontFamily=Architects Daughter;fontSource=https%3A%2F%2Ffonts.googleapis.com%2Fcss%3Ffamily%3DArchitects%2BDaughter;fontSize=16;" edge="1" parent="SoYxP0OV9XlbnNUCGbs9-6" source="SoYxP0OV9XlbnNUCGbs9-25" target="SoYxP0OV9XlbnNUCGbs9-32">
          <mxGeometry relative="1" as="geometry">
            <mxPoint x="801" y="319.5" as="targetPoint" />
          </mxGeometry>
        </mxCell>
        <mxCell id="SoYxP0OV9XlbnNUCGbs9-36" style="edgeStyle=orthogonalEdgeStyle;rounded=0;sketch=1;hachureGap=4;jiggle=2;curveFitting=1;orthogonalLoop=1;jettySize=auto;html=1;strokeColor=#23445D;fontFamily=Architects Daughter;fontSource=https%3A%2F%2Ffonts.googleapis.com%2Fcss%3Ffamily%3DArchitects%2BDaughter;fontSize=16;" edge="1" parent="SoYxP0OV9XlbnNUCGbs9-6" source="SoYxP0OV9XlbnNUCGbs9-35">
          <mxGeometry relative="1" as="geometry">
            <mxPoint x="706.5" y="582" as="targetPoint" />
          </mxGeometry>
        </mxCell>
        <mxCell id="SoYxP0OV9XlbnNUCGbs9-35" value="All OK" style="strokeWidth=2;html=1;shape=mxgraph.flowchart.start_2;whiteSpace=wrap;hachureGap=4;fontFamily=Architects Daughter;fontSource=https%3A%2F%2Ffonts.googleapis.com%2Fcss%3Ffamily%3DArchitects%2BDaughter;fontSize=20;" vertex="1" parent="SoYxP0OV9XlbnNUCGbs9-6">
          <mxGeometry x="669" y="478" width="75" height="66" as="geometry" />
        </mxCell>
        <mxCell id="SoYxP0OV9XlbnNUCGbs9-37" value="DO NOTHING" style="rounded=1;whiteSpace=wrap;html=1;absoluteArcSize=1;arcSize=14;strokeWidth=2;hachureGap=4;strokeColor=#6c8ebf;fontFamily=Architects Daughter;fontSource=https%3A%2F%2Ffonts.googleapis.com%2Fcss%3Ffamily%3DArchitects%2BDaughter;fontSize=20;fillColor=#dae8fc;" vertex="1" parent="SoYxP0OV9XlbnNUCGbs9-6">
          <mxGeometry x="625" y="587" width="181.75" height="49" as="geometry" />
        </mxCell>
        <mxCell id="SoYxP0OV9XlbnNUCGbs9-40" style="edgeStyle=orthogonalEdgeStyle;rounded=0;sketch=1;hachureGap=4;jiggle=2;curveFitting=1;orthogonalLoop=1;jettySize=auto;html=1;strokeColor=#23445D;fontFamily=Architects Daughter;fontSource=https%3A%2F%2Ffonts.googleapis.com%2Fcss%3Ffamily%3DArchitects%2BDaughter;fontSize=16;" edge="1" parent="SoYxP0OV9XlbnNUCGbs9-6" source="SoYxP0OV9XlbnNUCGbs9-38">
          <mxGeometry relative="1" as="geometry">
            <mxPoint x="420" y="319.5050000000001" as="targetPoint" />
          </mxGeometry>
        </mxCell>
        <mxCell id="SoYxP0OV9XlbnNUCGbs9-38" value="Make &lt;br&gt;Changes" style="strokeWidth=2;html=1;shape=mxgraph.flowchart.terminator;whiteSpace=wrap;hachureGap=4;strokeColor=#82b366;fontFamily=Architects Daughter;fontSource=https%3A%2F%2Ffonts.googleapis.com%2Fcss%3Ffamily%3DArchitects%2BDaughter;fontSize=20;fillColor=#d5e8d4;" vertex="1" parent="SoYxP0OV9XlbnNUCGbs9-6">
          <mxGeometry x="469" y="289.5050000000001" width="100" height="60" as="geometry" />
        </mxCell>
        <mxCell id="SoYxP0OV9XlbnNUCGbs9-34" style="edgeStyle=orthogonalEdgeStyle;rounded=0;sketch=1;hachureGap=4;jiggle=2;curveFitting=1;orthogonalLoop=1;jettySize=auto;html=1;strokeColor=#23445D;fontFamily=Architects Daughter;fontSource=https%3A%2F%2Ffonts.googleapis.com%2Fcss%3Ffamily%3DArchitects%2BDaughter;fontSize=16;" edge="1" parent="SoYxP0OV9XlbnNUCGbs9-6" source="SoYxP0OV9XlbnNUCGbs9-32" target="SoYxP0OV9XlbnNUCGbs9-38">
          <mxGeometry relative="1" as="geometry">
            <mxPoint x="425" y="319.5050000000001" as="targetPoint" />
          </mxGeometry>
        </mxCell>
        <mxCell id="SoYxP0OV9XlbnNUCGbs9-42" value="" style="outlineConnect=0;dashed=0;verticalLabelPosition=bottom;verticalAlign=top;align=center;html=1;shape=mxgraph.aws3.rds;fillColor=#2E73B8;gradientColor=none;hachureGap=4;strokeColor=#FFFFFF;fontFamily=Architects Daughter;fontSource=https%3A%2F%2Ffonts.googleapis.com%2Fcss%3Ffamily%3DArchitects%2BDaughter;fontSize=20;fontColor=#FFFFFF;" vertex="1" parent="SoYxP0OV9XlbnNUCGbs9-6">
          <mxGeometry x="351" y="343" width="42.5" height="51" as="geometry" />
        </mxCell>
        <mxCell id="SoYxP0OV9XlbnNUCGbs9-64" value="Lambda Functions" style="text;html=1;align=center;verticalAlign=middle;resizable=0;points=[];autosize=1;strokeColor=none;fillColor=none;" vertex="1" parent="SoYxP0OV9XlbnNUCGbs9-6">
          <mxGeometry x="869.25" y="370" width="117" height="26" as="geometry" />
        </mxCell>
        <mxCell id="SoYxP0OV9XlbnNUCGbs9-67" value="" style="dashed=0;outlineConnect=0;html=1;align=center;labelPosition=center;verticalLabelPosition=bottom;verticalAlign=top;shape=mxgraph.weblogos.youtube_2;fillColor=#FF2626;gradientColor=#B5171F" vertex="1" parent="SoYxP0OV9XlbnNUCGbs9-6">
          <mxGeometry x="1051" y="38" width="35.4" height="21.6" as="geometry" />
        </mxCell>
        <mxCell id="SoYxP0OV9XlbnNUCGbs9-69" value="&lt;font style=&quot;font-size: 16px;&quot;&gt;&lt;b&gt;&lt;font&gt;Project Design&lt;br&gt;by &lt;br&gt;Abhishek.Veeramalla&lt;br&gt;&lt;/font&gt;&lt;/b&gt;&lt;/font&gt;" style="rounded=1;whiteSpace=wrap;html=1;fillColor=#e3c800;strokeColor=#B09500;fontColor=#000000;" vertex="1" parent="SoYxP0OV9XlbnNUCGbs9-6">
          <mxGeometry x="1075" y="610" width="190" height="60" as="geometry" />
        </mxCell>
        <mxCell id="SoYxP0OV9XlbnNUCGbs9-70" value="&lt;b&gt;&lt;font style=&quot;font-size: 18px;&quot;&gt;/Abhishek.Veeramalla&lt;/font&gt;&lt;/b&gt;" style="text;html=1;align=center;verticalAlign=middle;resizable=0;points=[];autosize=1;strokeColor=none;fillColor=none;" vertex="1" parent="SoYxP0OV9XlbnNUCGbs9-6">
          <mxGeometry x="1079" y="34" width="203" height="34" as="geometry" />
        </mxCell>
        <mxCell id="SoYxP0OV9XlbnNUCGbs9-71" value="" style="shape=image;html=1;verticalAlign=top;verticalLabelPosition=bottom;labelBackgroundColor=#ffffff;imageAspect=0;aspect=fixed;image=https://cdn0.iconfinder.com/data/icons/phosphor-regular-vol-4/256/trademark-registered-128.png" vertex="1" parent="SoYxP0OV9XlbnNUCGbs9-6">
          <mxGeometry x="1078" y="610" width="32" height="32" as="geometry" />
        </mxCell>
        <mxCell id="SoYxP0OV9XlbnNUCGbs9-8" value="" style="verticalLabelPosition=bottom;sketch=0;html=1;fillColor=#A153A0;verticalAlign=top;align=center;pointerEvents=1;shape=mxgraph.cisco_safe.design.actor_2;hachureGap=4;jiggle=2;curveFitting=1;strokeColor=#FFFFFF;fontFamily=Architects Daughter;fontSource=https%3A%2F%2Ffonts.googleapis.com%2Fcss%3Ffamily%3DArchitects%2BDaughter;fontSize=20;fontColor=#FFFFFF;" vertex="1" parent="1">
          <mxGeometry x="-355" y="340" width="60" height="107" as="geometry" />
        </mxCell>
        <mxCell id="SoYxP0OV9XlbnNUCGbs9-10" value="&lt;font color=&quot;#000000&quot;&gt;&lt;b&gt;Actor&lt;br&gt;&lt;/b&gt;&lt;/font&gt;" style="text;html=1;strokeColor=none;fillColor=none;align=center;verticalAlign=middle;whiteSpace=wrap;rounded=0;fontSize=20;fontFamily=Architects Daughter;fontColor=#FFFFFF;" vertex="1" parent="1">
          <mxGeometry x="-367" y="449" width="84" height="47" as="geometry" />
        </mxCell>
        <mxCell id="SoYxP0OV9XlbnNUCGbs9-13" style="edgeStyle=entityRelationEdgeStyle;rounded=0;sketch=1;hachureGap=4;jiggle=2;curveFitting=1;orthogonalLoop=1;jettySize=auto;html=1;startArrow=none;endArrow=none;segment=10;curved=1;sourcePerimeterSpacing=0;targetPerimeterSpacing=0;strokeColor=#23445D;fontFamily=Architects Daughter;fontSource=https%3A%2F%2Ffonts.googleapis.com%2Fcss%3Ffamily%3DArchitects%2BDaughter;fontSize=16;" edge="1" parent="1" source="SoYxP0OV9XlbnNUCGbs9-11">
          <mxGeometry relative="1" as="geometry">
            <mxPoint x="255" y="377" as="targetPoint" />
          </mxGeometry>
        </mxCell>
        <mxCell id="SoYxP0OV9XlbnNUCGbs9-11" value="Creates" style="whiteSpace=wrap;html=1;rounded=1;arcSize=50;align=center;verticalAlign=middle;strokeWidth=1;autosize=1;spacing=4;treeFolding=1;treeMoving=1;newEdgeStyle={&quot;edgeStyle&quot;:&quot;entityRelationEdgeStyle&quot;,&quot;startArrow&quot;:&quot;none&quot;,&quot;endArrow&quot;:&quot;none&quot;,&quot;segment&quot;:10,&quot;curved&quot;:1,&quot;sourcePerimeterSpacing&quot;:0,&quot;targetPerimeterSpacing&quot;:0};hachureGap=4;strokeColor=#FFFFFF;fontFamily=Architects Daughter;fontSource=https%3A%2F%2Ffonts.googleapis.com%2Fcss%3Ffamily%3DArchitects%2BDaughter;fontSize=20;fontColor=#FFFFFF;fillColor=#182E3E;" vertex="1" parent="1">
          <mxGeometry x="-260" y="357" width="114" height="40" as="geometry" />
        </mxCell>
        <mxCell id="SoYxP0OV9XlbnNUCGbs9-12" value="" style="edgeStyle=entityRelationEdgeStyle;startArrow=none;endArrow=none;segment=10;curved=1;sourcePerimeterSpacing=0;targetPerimeterSpacing=0;rounded=0;sketch=1;hachureGap=4;jiggle=2;curveFitting=1;strokeColor=#23445D;fontFamily=Architects Daughter;fontSource=https%3A%2F%2Ffonts.googleapis.com%2Fcss%3Ffamily%3DArchitects%2BDaughter;fontSize=16;" edge="1" target="SoYxP0OV9XlbnNUCGbs9-11" parent="1">
          <mxGeometry relative="1" as="geometry">
            <mxPoint x="-283" y="404" as="sourcePoint" />
          </mxGeometry>
        </mxCell>
      </root>
    </mxGraphModel>
  </diagram>
</mxfile>
